<svg xmlns="http://www.w3.org/2000/svg" viewBox="0 0 24 16" width="24" height="16">
  <!-- Fond rouge avec bandes blanches -->
  <rect width="24" height="16" fill="#B22234"/>
  <rect width="24" height="1.23" y="1.23" fill="white"/>
  <rect width="24" height="1.23" y="3.69" fill="white"/>
  <rect width="24" height="1.23" y="6.15" fill="white"/>
  <rect width="24" height="1.23" y="8.61" fill="white"/>
  <rect width="24" height="1.23" y="11.07" fill="white"/>
  <rect width="24" height="1.23" y="13.53" fill="white"/>
  <!-- Canton bleu -->
  <rect width="9.6" height="8.6" fill="#3C3B6E"/>
  <!-- Étoiles simplifiées (représentation stylisée) -->
  <g fill="white">
    <circle cx="1.2" cy="1" r="0.3"/>
    <circle cx="2.4" cy="1" r="0.3"/>
    <circle cx="3.6" cy="1" r="0.3"/>
    <circle cx="4.8" cy="1" r="0.3"/>
    <circle cx="6" cy="1" r="0.3"/>
    <circle cx="7.2" cy="1" r="0.3"/>
    <circle cx="8.4" cy="1" r="0.3"/>
    
    <circle cx="1.8" cy="2" r="0.3"/>
    <circle cx="3" cy="2" r="0.3"/>
    <circle cx="4.2" cy="2" r="0.3"/>
    <circle cx="5.4" cy="2" r="0.3"/>
    <circle cx="6.6" cy="2" r="0.3"/>
    <circle cx="7.8" cy="2" r="0.3"/>
    
    <circle cx="1.2" cy="3" r="0.3"/>
    <circle cx="2.4" cy="3" r="0.3"/>
    <circle cx="3.6" cy="3" r="0.3"/>
    <circle cx="4.8" cy="3" r="0.3"/>
    <circle cx="6" cy="3" r="0.3"/>
    <circle cx="7.2" cy="3" r="0.3"/>
    <circle cx="8.4" cy="3" r="0.3"/>
    
    <circle cx="1.8" cy="4" r="0.3"/>
    <circle cx="3" cy="4" r="0.3"/>
    <circle cx="4.2" cy="4" r="0.3"/>
    <circle cx="5.4" cy="4" r="0.3"/>
    <circle cx="6.6" cy="4" r="0.3"/>
    <circle cx="7.8" cy="4" r="0.3"/>
    
    <circle cx="1.2" cy="5" r="0.3"/>
    <circle cx="2.4" cy="5" r="0.3"/>
    <circle cx="3.6" cy="5" r="0.3"/>
    <circle cx="4.8" cy="5" r="0.3"/>
    <circle cx="6" cy="5" r="0.3"/>
    <circle cx="7.2" cy="5" r="0.3"/>
    <circle cx="8.4" cy="5" r="0.3"/>
    
    <circle cx="1.8" cy="6" r="0.3"/>
    <circle cx="3" cy="6" r="0.3"/>
    <circle cx="4.2" cy="6" r="0.3"/>
    <circle cx="5.4" cy="6" r="0.3"/>
    <circle cx="6.6" cy="6" r="0.3"/>
    <circle cx="7.8" cy="6" r="0.3"/>
    
    <circle cx="1.2" cy="7" r="0.3"/>
    <circle cx="2.4" cy="7" r="0.3"/>
    <circle cx="3.6" cy="7" r="0.3"/>
    <circle cx="4.8" cy="7" r="0.3"/>
    <circle cx="6" cy="7" r="0.3"/>
    <circle cx="7.2" cy="7" r="0.3"/>
    <circle cx="8.4" cy="7" r="0.3"/>
    
    <circle cx="1.8" cy="8" r="0.3"/>
    <circle cx="3" cy="8" r="0.3"/>
    <circle cx="4.2" cy="8" r="0.3"/>
    <circle cx="5.4" cy="8" r="0.3"/>
    <circle cx="6.6" cy="8" r="0.3"/>
    <circle cx="7.8" cy="8" r="0.3"/>
  </g>
</svg>